<?xml version="1.0" standalone="no"?>
<!DOCTYPE svg PUBLIC "-//W3C//DTD SVG 20010904//EN"
 "http://www.w3.org/TR/2001/REC-SVG-20010904/DTD/svg10.dtd">
<svg version="1.0" xmlns="http://www.w3.org/2000/svg"
 width="421.000000pt" height="421.000000pt" viewBox="0 0 421.000000 421.000000"
 preserveAspectRatio="xMidYMid meet">
<metadata>
Created by potrace 1.16, written by Peter Selinger 2001-2019
</metadata>
<g transform="translate(0.000000,421.000000) scale(0.100000,-0.100000)"
fill="#000000" stroke="none">
<path d="M1933 2695 c-102 -31 -214 -131 -260 -232 -33 -72 -49 -214 -28 -256
8 -16 15 -36 15 -42 0 -7 11 -29 25 -49 14 -20 25 -42 25 -49 -1 -7 -8 0 -16
16 -15 29 -28 34 -39 16 -4 -6 2 -17 13 -25 13 -9 25 -34 32 -69 11 -52 13
-55 41 -55 l29 0 0 104 0 104 41 37 42 38 78 -6 c46 -3 79 -1 79 4 0 17 -54
31 -106 27 l-51 -4 15 37 c21 54 65 95 128 119 30 11 61 20 68 20 7 0 25 9 39
20 l25 20 20 -33 c11 -17 47 -63 81 -102 l60 -70 -36 -10 c-61 -17 -54 -36 9
-29 52 6 57 4 101 -29 26 -20 56 -38 67 -42 18 -6 20 -15 20 -106 l0 -99 29 0
c28 0 30 3 41 55 7 35 19 60 31 68 22 14 25 37 4 37 -8 0 -21 -12 -29 -27 -8
-16 -15 -23 -16 -18 0 6 9 23 19 39 11 17 18 34 15 38 -3 5 5 30 17 55 31 63
31 175 0 253 -31 83 -107 162 -195 206 -80 39 -176 55 -213 35 -16 -8 -30 -7
-57 4 -43 18 -106 18 -163 0z"/>
<path d="M1885 2175 c-40 -15 -75 -49 -75 -75 0 -8 9 -1 20 16 22 35 68 59 97
51 15 -4 14 -5 -4 -6 -22 -1 -63 -44 -63 -66 0 -7 8 -22 18 -33 25 -29 76 -13
91 30 14 38 14 34 -5 52 -8 9 -11 16 -6 16 10 0 41 -30 67 -65 14 -19 14 -18
15 17 0 71 -62 96 -155 63z"/>
<path d="M2215 2178 c-29 -16 -35 -28 -35 -68 1 -33 1 -34 15 -15 26 35 57 65
67 65 5 0 3 -7 -6 -15 -39 -39 -20 -109 26 -98 29 7 58 32 58 50 0 8 5 11 11
7 8 -4 8 -1 1 13 -14 25 -32 40 -57 46 -18 4 -17 5 3 6 34 2 79 -25 96 -57 10
-17 15 -21 16 -11 1 57 -135 111 -195 77z"/>
<path d="M1620 1342 c0 -30 29 -32 486 -32 407 0 464 2 478 16 22 21 20 27 -3
14 -26 -13 -901 -13 -936 0 -14 5 -25 6 -25 2z"/>
</g>
</svg>
